<svg width="33" height="22" viewBox="0 0 33 22" fill="none" xmlns="http://www.w3.org/2000/svg">
<g id="Frame 1000002847">
<g id="Vector">
<path d="M1.56713 0.392532C1.71447 0.31729 1.96759 0.215713 2.13382 0.166806C2.35293 0.106613 2.53805 0.0802781 2.80628 0.076516C3.06696 0.0727539 3.25585 0.0953264 3.46741 0.151758C3.62609 0.193141 3.90187 0.298479 4.07943 0.385007C4.29855 0.494108 4.48367 0.625781 4.67634 0.806361C4.83124 0.953083 5.02769 1.17128 5.11458 1.29543C5.19769 1.41958 5.31481 1.64155 5.37148 1.7845C5.43192 1.92746 5.5037 2.18329 5.5377 2.34882C5.58304 2.6084 5.59059 3.77841 5.57926 11.1521C5.5717 19.218 5.56793 19.6657 5.5037 19.8802C5.46592 20.0043 5.37903 20.2225 5.30725 20.3692C5.23925 20.516 5.09569 20.7417 4.98991 20.8771C4.88035 21.0125 4.68012 21.2119 4.54034 21.3248C4.40056 21.4377 4.16633 21.5844 4.02277 21.6521C3.87921 21.7198 3.64875 21.8063 3.51275 21.8402C3.34274 21.8891 3.13118 21.9079 2.81384 21.9079C2.44738 21.9079 2.3076 21.8929 2.07715 21.8214C1.92225 21.7725 1.71069 21.6935 1.60491 21.6408C1.50291 21.5881 1.2989 21.4565 1.15156 21.3511C1.00045 21.2383 0.796439 21.0351 0.671769 20.8733C0.554654 20.7191 0.407316 20.4859 0.343091 20.3504C0.278867 20.215 0.199531 19.9968 0.161752 19.8613C0.0975279 19.6319 0.09375 19.1503 0.09375 11.0016C0.09375 2.84165 0.0975279 2.37515 0.161752 2.1419C0.199531 2.00647 0.293979 1.76193 0.377093 1.5964C0.460206 1.43087 0.607544 1.20138 0.70577 1.08852C0.803995 0.975655 0.977779 0.802599 1.09489 0.704785C1.20823 0.606971 1.41979 0.464011 1.56713 0.392532Z" fill="black"/>
<path d="M9.68962 0.460249C9.81429 0.385007 10.0863 0.268383 10.2941 0.200665C10.6492 0.0802781 10.6983 0.076516 11.1063 0.0840402C11.4237 0.0915644 11.6163 0.117899 11.8241 0.181855C11.979 0.227 12.217 0.324814 12.353 0.396294C12.489 0.464011 12.7082 0.614495 12.8442 0.723595C12.9802 0.836458 13.1653 1.02832 13.2597 1.15624C13.3542 1.28415 13.4751 1.47978 13.5317 1.58888C13.5922 1.69421 13.6753 1.90113 13.8075 2.3112V19.7297L13.7017 20.0306C13.6413 20.1962 13.528 20.4407 13.4486 20.5761C13.3693 20.7116 13.2144 20.9185 13.1011 21.0426C12.9915 21.163 12.7648 21.3549 12.5986 21.464C12.4135 21.5844 12.1679 21.7048 11.9564 21.7763C11.7486 21.844 11.4917 21.8966 11.2952 21.9154C11.1026 21.9305 10.8608 21.923 10.6908 21.8966C10.5359 21.8703 10.2903 21.8101 10.143 21.7574C9.99563 21.7085 9.78406 21.6107 9.67073 21.543C9.55739 21.479 9.3156 21.2797 9.13804 21.1028C8.86603 20.8357 8.7867 20.7266 8.63936 20.4257C8.54491 20.23 8.43913 19.9592 8.40891 19.8237C8.35602 19.6093 8.34846 18.5446 8.34846 11.0016C8.34846 3.54516 8.35602 2.39396 8.40513 2.18705C8.43535 2.05914 8.51469 1.84094 8.57891 1.69798C8.64314 1.55878 8.76781 1.34434 8.8547 1.22019C8.94537 1.09604 9.11915 0.904176 9.24005 0.791313C9.36094 0.682212 9.56495 0.531729 9.68962 0.460249Z" fill="black"/>
<path d="M18.6432 0.170568C18.7679 0.136709 18.8775 0.102851 18.885 0.0915644C18.8926 0.0802781 19.0777 0.0727539 19.293 0.0727539C19.5726 0.0727539 19.7653 0.0953264 19.9731 0.151758C20.1355 0.196903 20.3509 0.268383 20.4566 0.313528C20.5586 0.358673 20.7475 0.467773 20.8722 0.550539C20.9969 0.633305 21.1933 0.802599 21.3104 0.922986C21.4276 1.04714 21.5824 1.239 21.6542 1.35186C21.726 1.46473 21.8318 1.6754 21.8922 1.82213C21.9489 1.96509 22.0207 2.21338 22.0471 2.36763C22.0887 2.59712 22.0962 4.20353 22.1 10.9828C22.1 18.1722 22.0925 19.361 22.0434 19.6356C22.0131 19.8124 21.9489 20.057 21.8998 20.1811C21.8507 20.3053 21.7411 20.5159 21.658 20.6514C21.5711 20.7868 21.3709 21.0238 21.2047 21.1781C20.9931 21.3812 20.8155 21.5054 20.5889 21.6182C20.4113 21.7048 20.1582 21.8063 20.0222 21.844C19.8522 21.8891 19.6368 21.9079 19.3233 21.9079C18.9568 21.9079 18.817 21.8929 18.5866 21.8214C18.4317 21.7725 18.2088 21.686 18.0954 21.6295C17.9821 21.5731 17.7781 21.4414 17.6459 21.3436C17.5099 21.242 17.321 21.0577 17.219 20.9335C17.1207 20.8094 16.981 20.5987 16.9092 20.4633C16.8374 20.3278 16.7392 20.0908 16.6032 19.6544V2.34882L16.6901 2.06666C16.7392 1.91242 16.8374 1.6754 16.9092 1.53997C16.9772 1.40453 17.117 1.19762 17.2152 1.08099C17.3172 0.960607 17.5061 0.776265 17.6421 0.670926C17.7781 0.561826 18.0048 0.418866 18.1521 0.351149C18.2994 0.283431 18.5186 0.204427 18.6432 0.170568Z" fill="black"/>
</g>
<path id="Vector_2" d="M26.6157 0.208159C26.7102 0.178062 26.8537 0.136679 26.9368 0.114107C27.0237 0.0952962 27.8662 0.0802479 30.7903 0.0915341L31.0925 0.193111C31.2587 0.249542 31.5043 0.358642 31.6365 0.437646C31.7725 0.51665 31.9917 0.682182 32.1239 0.806331C32.2599 0.93048 32.4375 1.13363 32.5206 1.25778C32.6075 1.38193 32.7208 1.58508 32.7775 1.70923C32.8341 1.83338 32.9059 2.0403 32.9399 2.17197C32.9777 2.31869 33.0004 2.56323 33.0004 2.82657C33.0004 3.14259 32.9815 3.32317 32.921 3.53385C32.8795 3.68809 32.7737 3.95144 32.6868 4.11697C32.5697 4.34646 32.4488 4.5007 32.1881 4.75653C31.9463 4.9973 31.7725 5.1365 31.5836 5.23431C31.4363 5.30955 31.2021 5.40737 31.0547 5.45627C30.7903 5.54656 30.7865 5.54656 28.8825 5.54656H28.8825H28.8824C27.0086 5.54656 26.9708 5.54656 26.6988 5.46004C26.5515 5.41489 26.3475 5.33213 26.2455 5.27946C26.1473 5.22302 25.981 5.12145 25.879 5.05749C25.7732 4.98977 25.5995 4.83553 25.4861 4.71138C25.3728 4.59099 25.2217 4.39913 25.1499 4.28626C25.0743 4.1734 24.9685 3.95144 24.9119 3.79719C24.8552 3.64295 24.7872 3.36455 24.7608 3.17645C24.723 2.90934 24.7192 2.76638 24.757 2.49927C24.7797 2.31117 24.8325 2.06663 24.8703 1.95377C24.9119 1.84091 24.9874 1.6528 25.0441 1.53994C25.097 1.42708 25.2254 1.23145 25.3274 1.1073C25.4295 0.983149 25.6183 0.791283 25.7506 0.685944C25.8828 0.576844 26.0944 0.437646 26.219 0.377453C26.3437 0.31726 26.5213 0.238256 26.6157 0.208159Z" fill="#8D11CC"/>
<path id="Vector_3" fill-rule="evenodd" clip-rule="evenodd" d="M28.8362 8.17596C30.3134 8.17596 30.6232 8.18349 30.8574 8.23616C31.0085 8.27002 31.2428 8.34526 31.375 8.40545C31.511 8.46941 31.7226 8.58979 31.8472 8.68008C31.9719 8.77037 32.1532 8.92462 32.2477 9.0262C32.3421 9.12777 32.4857 9.31212 32.565 9.43626C32.6481 9.56041 32.7502 9.75228 32.7955 9.8689C32.8408 9.98177 32.9088 10.2037 32.939 10.3655C32.973 10.5273 32.9995 10.768 32.9995 10.9035C32.9995 11.0352 32.9768 11.2684 32.9466 11.4189C32.9202 11.5694 32.8484 11.8026 32.7955 11.9381C32.7388 12.0697 32.6255 12.2879 32.5348 12.4234C32.4479 12.555 32.259 12.7732 32.1117 12.9124C31.9228 13.0855 31.7415 13.2096 31.4883 13.3338C31.2919 13.4316 31.0199 13.5369 30.8839 13.5708C30.6799 13.6197 30.3512 13.6272 28.9005 13.631C27.9447 13.631 27.0795 13.6159 26.9737 13.5971C26.8717 13.5783 26.6413 13.5068 26.4637 13.4354C26.2711 13.3639 26.033 13.2285 25.8593 13.1043C25.7044 12.9877 25.489 12.7845 25.3795 12.6491C25.2699 12.5174 25.1188 12.2879 25.047 12.145C24.9715 11.9982 24.8808 11.7537 24.8392 11.5995C24.7901 11.4001 24.7674 11.1894 24.7674 10.9035C24.7674 10.6138 24.7901 10.4031 24.8392 10.2075C24.8808 10.0495 24.9639 9.82376 25.0243 9.69961C25.0848 9.57546 25.2284 9.3535 25.3417 9.21054C25.455 9.06382 25.659 8.86066 25.795 8.75909C25.931 8.65375 26.1502 8.51455 26.2824 8.4506C26.4146 8.38288 26.6488 8.29635 26.8037 8.25497C27.0682 8.18349 27.208 8.17973 28.8362 8.17596ZM28.976 16.3547C30.4947 16.3623 30.7441 16.3698 30.9405 16.4262C31.0652 16.4638 31.3032 16.5579 31.4694 16.6407C31.6357 16.7234 31.8699 16.8702 31.9908 16.968C32.1117 17.0658 32.2855 17.2388 32.3761 17.3555C32.4706 17.4683 32.6066 17.6715 32.6746 17.8069C32.7464 17.9386 32.8446 18.1756 32.8937 18.3336C32.9655 18.5631 32.9806 18.6985 32.9806 19.086C32.9806 19.4735 32.9655 19.6052 32.8937 19.8384C32.8446 19.9927 32.7577 20.2109 32.6973 20.3275C32.6406 20.4404 32.5121 20.6435 32.4101 20.7752C32.3081 20.9069 32.123 21.0987 31.9984 21.1966C31.8737 21.2981 31.6621 21.4373 31.5261 21.5088C31.3939 21.5765 31.1634 21.6743 31.0161 21.7232C30.7592 21.806 30.7063 21.8098 29.0516 21.8211C27.9296 21.8324 27.2646 21.8211 27.0871 21.7947C26.9435 21.7722 26.7055 21.712 26.5582 21.6593C26.4146 21.6104 26.2031 21.5126 26.0859 21.4449C25.9726 21.3771 25.7346 21.1777 25.557 21.0047C25.319 20.7639 25.1944 20.6059 25.0772 20.3839C24.9903 20.2184 24.8846 19.9551 24.843 19.8008C24.7863 19.5901 24.7637 19.4096 24.7637 19.1048C24.7674 18.8678 24.7901 18.5819 24.8241 18.4465C24.8543 18.311 24.9601 18.0402 25.0583 17.8445C25.2019 17.5473 25.2926 17.4269 25.557 17.1636C25.7988 16.9228 25.9537 16.8024 26.1804 16.6896C26.3466 16.603 26.5695 16.5052 26.6715 16.4714C26.7773 16.4375 26.9473 16.3961 27.0493 16.3773C27.1551 16.3585 28.0202 16.3472 28.976 16.3547Z" fill="black"/>
</g>
</svg>
